<svg width="200" height="200" viewBox="0 0 200 200" xmlns="http://www.w3.org/2000/svg">
    <defs>
        <!-- Goldener Verlauf für den Rand -->
        <linearGradient id="goldBorder" x1="0%" y1="0%" x2="100%" y2="100%">
            <stop offset="0%" style="stop-color:#fbbf24"/>
            <stop offset="100%" style="stop-color:#d97706"/>
        </linearGradient>
        
        <!-- Unser Shopping App Verlauf -->
        <linearGradient id="darkGreen" x1="0%" y1="0%" x2="100%" y2="100%">
            <stop offset="0%" style="stop-color:#166534"/>
            <stop offset="100%" style="stop-color:#22543d"/>
        </linearGradient>
        
        <linearGradient id="screenGreen" x1="0%" y1="0%" x2="100%" y2="100%">
            <stop offset="0%" style="stop-color:#15803d"/>
            <stop offset="100%" style="stop-color:#166534"/>
        </linearGradient>
        
        <!-- Dunkleres Grau für Produktkarten -->
        <linearGradient id="lightGrey" x1="0%" y1="0%" x2="100%" y2="100%">
            <stop offset="0%" style="stop-color:#d1d5db"/>
            <stop offset="100%" style="stop-color:#9ca3af"/>
        </linearGradient>
        
        <!-- Schatten-Filter -->
        <filter id="subtleShadow" x="-20%" y="-20%" width="140%" height="140%">
            <feDropShadow dx="0" dy="3" stdDeviation="5" flood-color="#000000" flood-opacity="0.2"/>
        </filter>
    </defs>
    
    <!-- Goldener Quadratischer Rahmen -->
    <rect x="10" y="10" width="180" height="180" rx="25" fill="none" stroke="url(#goldBorder)" stroke-width="8" filter="url(#subtleShadow)"/>
    
    <!-- UNSER SCHLANKES HANDY-ICON - MAXIMALE BREITE, VERTIKAL ZENTRIERT -->
    <!-- Handy: 120px breit, 160px hoch (3:4 Ratio), zentriert bei (100,100) -->
    <rect x="40" y="20" width="120" height="160" rx="20" fill="url(#darkGreen)" stroke="url(#goldBorder)" stroke-width="4" filter="url(#subtleShadow)"/>
    
    <!-- Screen -->
    <rect x="50" y="35" width="100" height="130" rx="10" fill="url(#screenGreen)" opacity="0.8" filter="url(#subtleShadow)"/>
    
    <!-- MILCH Karte - CLEAN OUTLINE MIT GRAUEM HINTERGRUND -->
    <rect x="55" y="40" width="40" height="55" fill="url(#lightGrey)" stroke="url(#goldBorder)" stroke-width="2" rx="4" filter="url(#subtleShadow)"/>
    <path d="M67 50 L67 75 L83 75 L83 62 L77 50 Z" fill="none" stroke="#374151" stroke-width="2" stroke-linecap="round" stroke-linejoin="round"/>
    <path d="M77 50 L83 46 L71 46 L67 50" fill="none" stroke="#374151" stroke-width="2" stroke-linecap="round" stroke-linejoin="round"/>
    <text x="75" y="90" font-family="Arial" font-size="6" text-anchor="middle" fill="url(#darkGreen)" font-weight="bold">1.99€</text>
    
    <!-- BROT Karte - CLEAN OUTLINE MIT GRAUEM HINTERGRUND -->
    <rect x="105" y="40" width="40" height="55" fill="url(#lightGrey)" stroke="url(#goldBorder)" stroke-width="2" rx="4" filter="url(#subtleShadow)"/>
    <ellipse cx="125" cy="65" rx="15" ry="9" fill="none" stroke="#374151" stroke-width="2" stroke-linecap="round" stroke-linejoin="round"/>
    <line x1="115" y1="62" x2="115" y2="68" stroke="#374151" stroke-width="2" stroke-linecap="round"/>
    <line x1="120" y1="60" x2="120" y2="70" stroke="#374151" stroke-width="2" stroke-linecap="round"/>
    <line x1="125" y1="59" x2="125" y2="71" stroke="#374151" stroke-width="2" stroke-linecap="round"/>
    <line x1="130" y1="60" x2="130" y2="70" stroke="#374151" stroke-width="2" stroke-linecap="round"/>
    <line x1="135" y1="62" x2="135" y2="68" stroke="#374151" stroke-width="2" stroke-linecap="round"/>
    <text x="125" y="90" font-family="Arial" font-size="6" text-anchor="middle" fill="url(#darkGreen)" font-weight="bold">2.89€</text>
    
    <!-- SCHOKOLADE Karte - CLEAN OUTLINE MIT GRAUEM HINTERGRUND -->
    <rect x="55" y="105" width="40" height="55" fill="url(#lightGrey)" stroke="url(#goldBorder)" stroke-width="2" rx="4" filter="url(#subtleShadow)"/>
    <rect x="65" y="120" width="20" height="15" rx="2" fill="none" stroke="#374151" stroke-width="2" stroke-linecap="round" stroke-linejoin="round"/>
    <line x1="70" y1="120" x2="70" y2="135" stroke="#374151" stroke-width="2" stroke-linecap="round"/>
    <line x1="75" y1="120" x2="75" y2="135" stroke="#374151" stroke-width="2" stroke-linecap="round"/>
    <line x1="80" y1="120" x2="80" y2="135" stroke="#374151" stroke-width="2" stroke-linecap="round"/>
    <line x1="65" y1="125" x2="85" y2="125" stroke="#374151" stroke-width="2" stroke-linecap="round"/>
    <line x1="65" y1="130" x2="85" y2="130" stroke="#374151" stroke-width="2" stroke-linecap="round"/>
    <text x="75" y="155" font-family="Arial" font-size="6" text-anchor="middle" fill="url(#darkGreen)" font-weight="bold">1.49€</text>
    
    <!-- APFEL Karte - CLEAN OUTLINE MIT GRAUEM HINTERGRUND -->
    <rect x="105" y="105" width="40" height="55" fill="url(#lightGrey)" stroke="url(#goldBorder)" stroke-width="2" rx="4" filter="url(#subtleShadow)"/>
    <circle cx="125" cy="130" r="12" fill="none" stroke="#374151" stroke-width="2" stroke-linecap="round" stroke-linejoin="round"/>
    <path d="M125 118 L125 113" stroke="#374151" stroke-width="2" stroke-linecap="round" stroke-linejoin="round"/>
    <text x="125" y="155" font-family="Arial" font-size="6" text-anchor="middle" fill="url(#darkGreen)" font-weight="bold">1.29€</text>
    
    <!-- Home Button -->
    <circle cx="100" cy="170" r="6" fill="url(#goldBorder)"/>
</svg>